<svg xmlns="http://www.w3.org/2000/svg" xml:space="preserve" viewBox="0 0 680 680">
  <defs>
    <radialGradient id="a" cx="1270.13" cy="541.97" r="47.48" gradientTransform="matrix(-8.8 2.48 1.79 6.35 10873.12 -6274.96)" gradientUnits="userSpaceOnUse">
      <stop offset="0" stop-color="#ff005f"/>
      <stop offset="1" stop-color="#fc01d8"/>
    </radialGradient>
    <radialGradient id="c" cx="1091.2" cy="772.79" r="58.95" gradientTransform="rotate(120 -992.7 3554.6)scale(-3.81 4.96)" gradientUnits="userSpaceOnUse">
      <stop offset="0" stop-color="#fc0"/>
      <stop offset="1" stop-color="#fc0" stop-opacity="0"/>
    </radialGradient>
    <radialGradient id="b" cx="1160.06" cy="706.17" r="47.48" gradientTransform="matrix(0 -11.43 -12.13 0 8745.01 13994.49)" gradientUnits="userSpaceOnUse">
      <stop offset="0" stop-color="#fc0"/>
      <stop offset=".12" stop-color="#fc0"/>
      <stop offset=".57" stop-color="#fe4a05"/>
      <stop offset=".69" stop-color="#ff0f3f"/>
      <stop offset="1" stop-color="#fe0657" stop-opacity="0"/>
    </radialGradient>
    <radialGradient id="d" cx="1232.01" cy="1049.78" r="60.84" gradientTransform="matrix(-6.8 1.91 .65 2.32 7779.96 -4761.92)" gradientUnits="userSpaceOnUse">
      <stop offset="0" stop-color="#780cff"/>
      <stop offset="1" stop-color="#820bff" stop-opacity="0"/>
    </radialGradient>
  </defs>
  <path fill="url(#a)" d="M340.05 0v.1c-13.94 0-16.6.03-28.67.03-58.69.12-81.03.53-111.63 1.89-36.17 1.61-60.9 7.4-82.55 15.74-22.32 8.75-41.28 20.32-60.24 39.16s-30.52 37.82-39.26 60.3C9.23 138.87 3.58 163.5 1.97 199.7.45 234 .04 250.8 0 329.76v10.14l.02 13.98c.06 74.4.46 92.72 1.95 126.28 1.61 36.2 7.4 60.96 15.73 82.5 8.74 22.33 20.3 41.3 39.26 60.28s37.92 30.55 60.24 39.3c21.64 8.34 46.38 14.13 82.55 15.74 36.28 1.61 47.9 2.02 140.13 2.02h.24c92.17 0 103.82-.4 140.09-2.02 36.16-1.61 60.9-7.4 82.55-15.74 22.32-8.75 41.28-20.32 60.23-39.3 18.96-18.84 30.52-37.81 39.26-60.29 8.34-21.66 14.12-46.3 15.73-82.5C679.6 443.84 680 432.24 680 340v-.19c0-92.13-.4-103.92-2.02-140.1-1.74-36.2-7.4-60.96-15.73-82.49-8.74-22.34-20.3-41.31-39.26-60.29s-37.78-30.54-60.23-39.16C541.1 9.42 516.37 3.63 480.2 2.02 443.79.41 432.3 0 340.05 0m-30.6 61.23h30.53c90.75 0 101.5.27 137.4 2.02 33.21 1.48 51.1 7 63.2 11.7 15.86 6.2 27.15 13.6 39.12 25.44s19.23 23.28 25.41 39.16c4.7 11.98 10.22 30.01 11.7 63.12 1.61 35.8 2.02 46.56 2.02 137.4 0 90.83-.4 101.47-2.02 137.4-1.48 33.1-7 51.14-11.7 63.11-6.18 15.88-13.58 27.19-25.41 39.03-11.97 11.84-23.26 19.24-39.12 25.43-11.97 4.71-29.99 10.23-63.2 11.71-35.9 1.62-46.65 2.02-137.4 2.02-90.76 0-101.51-.4-137.41-2.02-33.2-1.48-51.1-7.13-63.2-11.7-15.86-6.2-27.15-13.6-39.12-25.44s-19.22-23.15-25.4-39.03c-4.71-11.97-10.22-30-11.7-63.11-1.62-35.8-2.02-46.57-2.02-137.4s.27-101.47 2.02-137.4c1.48-33.1 6.99-51.14 11.7-63.12 6.18-15.88 13.57-27.18 25.4-39.16 11.97-11.84 23.26-19.24 39.13-25.43 11.96-4.71 29.98-10.23 63.19-11.71 31.46-1.61 43.56-2.02 106.89-2.02m212.03 56.52a40.73 40.73 0 0 0-40.73 40.78 40.73 40.73 0 1 0 81.48 0 40.73 40.73 0 0 0-40.75-40.78m-181.5 47.64c-96.4 0-174.65 78.19-174.65 174.68s78.25 174.67 174.65 174.67 174.65-78.18 174.65-174.67c0-96.5-78.25-174.68-174.65-174.68m0 61.37c62.65 0 113.34 50.73 113.34 113.3s-50.69 113.32-113.34 113.32-113.34-50.74-113.34-113.31 50.82-113.31 113.34-113.31"/>
  <path fill="url(#b)" d="M311.75.1C253.06.23 230.73.63 200.12 2c-36.17 1.61-60.9 7.4-82.55 15.74C95.25 26.5 76.29 38.06 57.33 56.9c-18.95 18.84-30.52 37.82-39.26 60.3-8.47 21.67-14.11 46.3-15.73 82.5-.93 95.92-4.77 171.55 0 280.44 1.62 36.2 7.4 60.97 15.74 82.5 8.73 22.34 20.3 41.31 39.25 60.29 18.96 18.97 37.92 30.55 60.24 39.3 21.64 8.34 46.38 14.12 82.55 15.74 36.28 1.61 47.9 2.02 140.13 2.02h.25c92.16 0 103.8-.4 140.08-2.02 36.17-1.62 60.9-7.4 82.55-15.75 22.32-8.74 41.28-20.32 60.24-39.3 18.95-18.83 30.52-37.8 39.26-60.28 8.33-21.67 14.11-46.3 15.73-82.5.69-97.2.43.8 0-280.45-1.75-36.2-7.4-60.96-15.73-82.5-8.74-22.33-20.3-41.3-39.26-60.28-18.96-18.97-37.78-30.55-60.24-39.16C541.5 9.4 516.75 3.61 480.58 2 399.62-.64 378.56.09 311.75.1m-1.92 61.1c56.8.05 122.76-.16 167.93 2.03 33.2 1.48 51.09 7 63.19 11.7 31.51 13.43 53.13 35.84 64.53 64.6 4.71 11.98 10.22 30.01 11.7 63.11 2.17 100.42 4.53 173.53 0 274.8-1.48 33.1-6.99 51.14-11.7 63.12-6.18 15.88-13.58 27.18-25.4 39.02-11.97 11.85-23.27 19.25-39.13 25.44-11.97 4.71-29.98 10.23-63.2 11.7-35.9 1.62-46.65 2.03-137.4 2.03s-101.51-.4-137.4-2.02c-33.22-1.48-51.1-7.13-63.2-11.71-15.86-6.2-27.16-13.6-39.12-25.44-11.97-11.84-19.23-23.14-25.41-39.02-4.71-11.98-10.22-30.01-11.7-63.12-1.97-100.24-4.87-173.76 0-274.8 1.48-33.1 6.99-51.13 11.7-63.11 6.18-15.88 13.58-27.18 25.4-39.16 11.97-11.84 23.27-19.25 39.13-25.44 11.97-4.7 29.98-10.22 63.2-11.7 31.45-1.62 43.55-2.02 106.88-2.02m30.52 104.17c-96.4 0-174.65 78.18-174.65 174.67 0 96.5 78.25 174.68 174.65 174.68S515 436.53 515 340.04s-78.25-174.67-174.65-174.67m0 61.36c62.65 0 113.34 50.74 113.34 113.31S403 453.36 340.35 453.36s-113.34-50.74-113.34-113.32 50.82-113.3 113.34-113.3"/>
  <path fill="url(#c)" d="M340.05 0v.1c-13.94 0-16.6.03-28.67.03-58.69.12-81.03.53-111.63 1.89-36.17 1.61-60.9 7.4-82.55 15.74-22.32 8.75-41.28 20.32-60.24 39.16s-30.52 37.82-39.26 60.3C9.23 138.87 3.58 163.5 1.97 199.7.45 234 .04 250.8 0 329.76v10.14l.02 13.98c.06 74.4.46 92.72 1.95 126.28 1.61 36.2 7.4 60.96 15.73 82.5 8.74 22.33 20.3 41.3 39.26 60.28s37.92 30.55 60.24 39.3c21.64 8.34 46.38 14.13 82.55 15.74 36.28 1.61 47.9 2.02 140.13 2.02h.24c92.17 0 103.82-.4 140.09-2.02 36.16-1.61 60.9-7.4 82.55-15.74 22.32-8.75 41.28-20.32 60.23-39.3 18.96-18.84 30.52-37.81 39.26-60.29 8.34-21.66 14.12-46.3 15.73-82.5C679.6 443.84 680 432.24 680 340v-.19c0-92.13-.4-103.92-2.02-140.1-1.74-36.2-7.4-60.96-15.73-82.49-8.74-22.34-20.3-41.31-39.26-60.29s-37.78-30.54-60.23-39.16c-21.65-8.34-46.39-14.13-82.55-15.74C443.79.41 432.3 0 340.05 0m-30.6 61.23h30.53c90.75 0 101.5.27 137.4 2.02 33.21 1.48 51.1 7 63.2 11.7 31.51 13.43 53.13 35.84 64.53 64.6 4.7 11.98 10.22 30.01 11.7 63.12 1.61 35.8 2.02 46.56 2.02 137.4 0 90.83-.4 101.47-2.02 137.4-1.48 33.1-7 51.14-11.7 63.11-6.18 15.88-13.58 27.19-25.41 39.03-11.97 11.84-23.26 19.24-39.12 25.43-11.97 4.71-29.99 10.23-63.2 11.71-35.9 1.62-46.65 2.02-137.4 2.02-90.76 0-101.51-.4-137.41-2.02-33.2-1.48-51.1-7.13-63.2-11.7-15.86-6.2-27.15-13.6-39.12-25.44s-19.22-23.15-25.4-39.03c-4.71-11.97-10.22-30-11.7-63.11-1.62-35.8-2.02-46.57-2.02-137.4s.27-101.47 2.02-137.4c1.48-33.1 6.99-51.14 11.7-63.12 6.18-15.88 13.57-27.18 25.4-39.16 11.97-11.84 23.26-19.24 39.13-25.43 11.96-4.71 29.98-10.23 63.19-11.71 31.46-1.61 43.56-2.02 106.89-2.02m30.53 104.16c-96.4 0-174.65 78.19-174.65 174.68s78.25 174.67 174.65 174.67 174.65-78.18 174.65-174.67c0-96.5-78.25-174.68-174.65-174.68m0 61.37c62.65 0 113.34 50.73 113.34 113.3s-50.69 113.32-113.34 113.32-113.34-50.74-113.34-113.31 50.82-113.31 113.34-113.31"/>
  <path fill="url(#d)" d="M338.08 0v.1c-13.94 0-16.6.02-28.67.03-58.69.12-81.03.53-111.63 1.89-36.17 1.61-60.9 7.4-82.56 15.74C92.91 26.51 73.95 38.08 55 56.92s-30.52 37.82-39.26 60.3C7.26 138.87 1.61 163.5 0 199.7 198.7 295 670 24.99 478.24 2.02 441.82.41 430.34 0 338.08 0m-30.6 61.23h30.53c90.75 0 101.5.27 137.4 2.02-413.92 143.05.25.21-414.23 139.42 1.47-33.1 6.99-51.14 11.7-63.12 6.18-15.88 13.57-27.18 25.4-39.16 11.97-11.84 23.26-19.24 39.13-25.43 11.96-4.71 29.98-10.23 63.19-11.71 31.46-1.61 43.56-2.02 106.89-2.02"/>
</svg>
